<svg xmlns="http://www.w3.org/2000/svg" xmlns:xlink="http://www.w3.org/1999/xlink" width="24px" height="28px" viewBox="0 0 24 28" version="1.1">
<g id="surface1">
<path style=" stroke:none;fill-rule:nonzero;fill:#595959;fill-opacity:1;" d="M 12.875 11.914062 C 13.957031 13.878906 14.46875 16.011719 14.527344 18.148438 C 14.570312 19.625 14.398438 21.101562 14.046875 22.519531 C 14.800781 22.25 15.515625 21.890625 16.210938 21.445312 C 16.78125 21.082031 17.34375 20.667969 17.898438 20.195312 C 17.027344 17.082031 19.480469 15.230469 23.957031 14.691406 C 24.378906 19.914062 21.488281 22.125 18.230469 21.066406 C 17.726562 21.480469 17.214844 21.851562 16.691406 22.183594 C 15.765625 22.773438 14.800781 23.226562 13.765625 23.535156 C 13.289062 25.054688 12.617188 26.488281 11.796875 27.757812 C 11.667969 27.960938 11.390625 28.019531 11.1875 27.890625 C 10.980469 27.761719 10.921875 27.492188 11.050781 27.289062 C 12.710938 24.722656 13.738281 21.449219 13.644531 18.175781 C 13.574219 15.710938 12.863281 13.25 11.308594 11.085938 C 12.535156 15.289062 11.53125 17.644531 9.390625 19.15625 C 6.980469 16.957031 6.71875 14.046875 8.804688 10.082031 C 5.726562 12.59375 2.859375 13.308594 0 11.429688 C 0.578125 8.609375 3.367188 7.457031 8.199219 7.867188 C 4.933594 6.023438 3.261719 3.90625 4.46875 0.0429688 C 7.121094 0.316406 9.394531 2.007812 10.199219 6.800781 C 11.527344 3.070312 13.691406 0.574219 16.765625 0.703125 C 17.394531 3.675781 16.609375 6.082031 12.136719 8.488281 C 16.070312 8.476562 18.9375 9.03125 19.625 12.636719 C 17.214844 14.003906 15.058594 13.566406 12.875 11.914062 Z M 12.875 11.914062 "/>
</g>
</svg>