<svg xmlns="http://www.w3.org/2000/svg" xmlns:xlink="http://www.w3.org/1999/xlink" width="34px" height="24px" viewBox="0 0 34 24" version="1.1">
<g id="surface1">
<path style=" stroke:none;fill-rule:evenodd;fill:#779d07;fill-opacity:1;" d="M 15.660156 9.769531 L 15.660156 9.710938 L 24.898438 6.03125 L 16.425781 10.933594 C 17.742188 12.25 19.488281 13.035156 21.335938 13.144531 C 25.179688 13.398438 28.722656 11.671875 31.09375 8.675781 C 31.546875 8.09375 31.941406 7.46875 32.273438 6.8125 C 32.691406 6.007812 34.183594 3.300781 33.96875 2.65625 C 33.652344 1.710938 29.265625 1.0625 28.261719 0.925781 C 23.046875 0.195312 16.675781 1.070312 15.261719 7.257812 C 15.195312 7.558594 15.171875 7.871094 15.199219 8.179688 L 14.90625 8.375 L 14.628906 8.171875 C 14.683594 7.957031 14.710938 7.734375 14.703125 7.515625 C 14.574219 2.175781 9.472656 0.367188 5.058594 0.0742188 C 4.210938 0.015625 0.488281 -0.195312 0.0742188 0.527344 C -0.214844 1.023438 0.5625 3.503906 0.769531 4.238281 C 0.9375 4.835938 1.15625 5.417969 1.433594 5.972656 C 2.835938 8.863281 5.5625 10.867188 8.71875 11.320312 C 10.261719 11.550781 11.835938 11.199219 13.140625 10.335938 L 6.984375 4.859375 L 13.621094 9.230469 L 13.621094 9.277344 C 14.148438 11.144531 14.058594 13.847656 13.546875 16.109375 L 16.203125 17.027344 C 15.652344 14.933594 14.984375 11.855469 15.652344 9.769531 Z M 15.660156 9.769531 "/>
<path style=" stroke:none;fill-rule:evenodd;fill:#779d07;fill-opacity:1;" d="M 2.757812 22.464844 C 2.089844 22.496094 1.601562 23.449219 1.835938 24.007812 L 26.960938 24.007812 C 26.507812 22.867188 25.488281 22.050781 24.285156 21.867188 C 23.957031 18.46875 20.667969 17.253906 18.242188 18.554688 C 19.152344 16.007812 17.21875 15.46875 15.839844 15.851562 C 15.148438 14.992188 12.523438 15.675781 12.441406 17.226562 C 9.195312 15.011719 6.117188 16.847656 6.4375 19.972656 C 5.34375 19.335938 2.671875 19.714844 2.757812 22.464844 Z M 2.757812 22.464844 "/>
</g>
</svg>