<?xml version="1.0" encoding="UTF-8"?>
<svg xmlns="http://www.w3.org/2000/svg" xmlns:xlink="http://www.w3.org/1999/xlink" width="24px" height="17px" viewBox="0 0 24 17" version="1.1">
<g id="surface1">
<path style=" stroke:none;fill-rule:evenodd;fill:rgb(34.901961%,34.901961%,34.901961%);fill-opacity:1;" d="M 11.054688 6.921875 L 11.054688 6.878906 L 17.574219 4.273438 L 11.59375 7.746094 C 12.523438 8.675781 13.757812 9.234375 15.0625 9.3125 C 17.773438 9.492188 20.273438 8.265625 21.949219 6.144531 C 22.269531 5.734375 22.546875 5.289062 22.78125 4.824219 C 23.078125 4.253906 24.128906 2.339844 23.976562 1.882812 C 23.753906 1.210938 20.65625 0.753906 19.949219 0.65625 C 16.269531 0.136719 11.769531 0.757812 10.773438 5.140625 C 10.726562 5.355469 10.710938 5.574219 10.730469 5.792969 L 10.523438 5.933594 L 10.328125 5.789062 C 10.363281 5.636719 10.382812 5.476562 10.378906 5.324219 C 10.289062 1.542969 6.6875 0.261719 3.570312 0.0507812 C 2.972656 0.0117188 0.34375 -0.136719 0.0507812 0.375 C -0.152344 0.726562 0.398438 2.480469 0.542969 3.003906 C 0.660156 3.425781 0.816406 3.835938 1.011719 4.230469 C 2 6.277344 3.925781 7.699219 6.15625 8.019531 C 7.242188 8.183594 8.355469 7.933594 9.277344 7.320312 L 4.929688 3.441406 L 9.613281 6.539062 L 9.613281 6.570312 C 9.988281 7.894531 9.921875 9.808594 9.5625 11.410156 L 11.4375 12.0625 C 11.046875 10.578125 10.578125 8.398438 11.046875 6.921875 Z M 11.054688 6.921875 "/>
<path style=" stroke:none;fill-rule:evenodd;fill:rgb(34.901961%,34.901961%,34.901961%);fill-opacity:1;" d="M 1.945312 15.914062 C 1.476562 15.933594 1.128906 16.609375 1.296875 17.003906 L 19.03125 17.003906 C 18.710938 16.199219 17.992188 15.621094 17.140625 15.488281 C 16.910156 13.082031 14.589844 12.222656 12.875 13.144531 C 13.519531 11.339844 12.15625 10.957031 11.179688 11.226562 C 10.691406 10.621094 8.839844 11.105469 8.78125 12.203125 C 6.492188 10.632812 4.316406 11.933594 4.542969 14.148438 C 3.773438 13.695312 1.886719 13.964844 1.945312 15.914062 Z M 1.945312 15.914062 "/>
</g>
</svg>
